<?xml version="1.0" encoding="UTF-8"?>
<!DOCTYPE svg PUBLIC "-//W3C//DTD SVG 1.1//EN" "http://www.w3.org/Graphics/SVG/1.1/DTD/svg11.dtd">
<svg xmlns="http://www.w3.org/2000/svg" version="1.1" width="100px" height="100px" style="shape-rendering:geometricPrecision; text-rendering:geometricPrecision; image-rendering:optimizeQuality; fill-rule:evenodd; clip-rule:evenodd" xmlns:xlink="http://www.w3.org/1999/xlink">
<g><path style="opacity:0.993" fill="#93c94b" d="M 34.5,25.5 C 37.1676,23.6645 39.3343,21.3312 41,18.5C 42.6483,13.072 44.4816,7.73865 46.5,2.5C 46.8966,1.47498 47.5632,1.30831 48.5,2C 48.8921,8.14839 48.3921,14.3151 47,20.5C 43.8231,25.2712 39.6564,26.9379 34.5,25.5 Z"/></g>
<g><path style="opacity:1" fill="#559d11" d="M 46.5,2.5 C 44.4816,7.73865 42.6483,13.072 41,18.5C 39.3343,21.3312 37.1676,23.6645 34.5,25.5C 29.847,18.5953 30.847,12.4286 37.5,7C 40.2432,4.96171 43.2432,3.46171 46.5,2.5 Z"/></g>
<g><path style="opacity:1" fill="#6988f9" d="M 62.5,22.5 C 62.1961,23.1499 61.8627,23.8165 61.5,24.5C 63.4211,27.5963 64.7544,30.9296 65.5,34.5C 63.901,34.2322 62.5676,34.5655 61.5,35.5C 59.5891,35.5743 58.4224,36.5743 58,38.5C 56.4914,41.3285 56.3247,44.1619 57.5,47C 53.7838,51.8097 49.6171,52.3097 45,48.5C 42.193,41.9564 41.8597,35.2897 44,28.5C 44.7845,26.714 45.9512,25.214 47.5,24C 52.3722,22.6115 57.3722,22.1115 62.5,22.5 Z"/></g>
<g><path style="opacity:1" fill="#6294f7" d="M 62.5,22.5 C 67.0532,23.5623 71.0532,25.5623 74.5,28.5C 78.0192,41.144 76.6859,53.144 70.5,64.5C 70.6664,56.4931 70.4997,48.4931 70,40.5C 68.516,36.5123 65.6826,34.8456 61.5,35.5C 62.5676,34.5655 63.901,34.2322 65.5,34.5C 64.7544,30.9296 63.4211,27.5963 61.5,24.5C 61.8627,23.8165 62.1961,23.1499 62.5,22.5 Z"/></g>
<g><path style="opacity:1" fill="#4fb0f1" d="M 30.5,27.5 C 17.3966,39.8097 13.7299,54.4764 19.5,71.5C 26.6505,83.0492 36.9838,88.2159 50.5,87C 56.3979,85.5947 61.0646,82.428 64.5,77.5C 67.6987,77.2384 69.6987,75.5717 70.5,72.5C 77.9156,60.17 80.9156,46.8366 79.5,32.5C 83.0957,35.3569 85.429,39.0236 86.5,43.5C 91.1705,67.6495 81.8372,83.4828 58.5,91C 35.2056,96.0257 20.2056,87.1924 13.5,64.5C 11.5699,54.1753 12.5699,44.1753 16.5,34.5C 19.3071,30.0408 23.3071,27.0408 28.5,25.5C 29.7133,25.7472 30.38,26.4138 30.5,27.5 Z"/></g>
<g><path style="opacity:1" fill="#6095f7" d="M 29.5,36.5 C 29.1963,46.8779 29.6963,57.2112 31,67.5C 32.0925,73.054 35.0925,77.054 40,79.5C 41.0113,78.6634 42.1779,78.33 43.5,78.5C 48.8813,79.2594 53.548,77.5927 57.5,73.5C 58.2719,74.6935 59.2719,75.6935 60.5,76.5C 56.6505,81.3353 51.4838,83.6686 45,83.5C 29.2819,82.2378 20.7819,73.7378 19.5,58C 19.9979,49.8602 22.8312,42.6935 28,36.5C 28.69,35.2617 29.19,35.2617 29.5,36.5 Z"/></g>
<g><path style="opacity:1" fill="#7a7afc" d="M 16.5,34.5 C 12.5699,44.1753 11.5699,54.1753 13.5,64.5C 11.5891,64.4257 10.4224,63.4257 10,61.5C 9.51722,62.448 9.35055,63.448 9.5,64.5C 6.79131,53.3342 9.12464,43.3342 16.5,34.5 Z"/></g>
<g><path style="opacity:1" fill="#56a1f4" d="M 74.5,28.5 C 76.7488,29.0798 78.4154,30.4131 79.5,32.5C 80.9156,46.8366 77.9156,60.17 70.5,72.5C 70.5,69.8333 70.5,67.1667 70.5,64.5C 76.6859,53.144 78.0192,41.144 74.5,28.5 Z"/></g>
<g><path style="opacity:1" fill="#56a2f4" d="M 30.5,27.5 C 30.81,30.7131 30.4767,33.7131 29.5,36.5C 29.19,35.2617 28.69,35.2617 28,36.5C 22.8312,42.6935 19.9979,49.8602 19.5,58C 20.7819,73.7378 29.2819,82.2378 45,83.5C 51.4838,83.6686 56.6505,81.3353 60.5,76.5C 61.7079,77.2341 63.0413,77.5674 64.5,77.5C 61.0646,82.428 56.3979,85.5947 50.5,87C 36.9838,88.2159 26.6505,83.0492 19.5,71.5C 13.7299,54.4764 17.3966,39.8097 30.5,27.5 Z"/></g>
<g><path style="opacity:1" fill="#9d4ffd" d="M 86.5,43.5 C 93.1806,57.8195 91.0139,70.8195 80,82.5C 61.8563,99.7622 42.3563,101.595 21.5,88C 14.712,81.5907 10.712,73.7574 9.5,64.5C 9.35055,63.448 9.51722,62.448 10,61.5C 10.4224,63.4257 11.5891,64.4257 13.5,64.5C 20.2056,87.1924 35.2056,96.0257 58.5,91C 81.8372,83.4828 91.1705,67.6495 86.5,43.5 Z"/></g>
<g><path style="opacity:1" fill="#6b8df9" d="M 57.5,73.5 C 53.548,77.5927 48.8813,79.2594 43.5,78.5C 44.7899,77.9423 45.6232,76.9423 46,75.5C 46.3333,72.5 46.6667,69.5 47,66.5C 49.4401,62.2644 52.6068,61.5977 56.5,64.5C 57.4066,67.4212 57.7399,70.4212 57.5,73.5 Z"/></g>
</svg>
